<?xml version="1.0" encoding="iso-8859-1"?>
<!-- Generator: Adobe Illustrator 19.0.0, SVG Export Plug-In . SVG Version: 6.00 Build 0)  -->
<svg version="1.1" id="Layer_1" xmlns="http://www.w3.org/2000/svg" xmlns:xlink="http://www.w3.org/1999/xlink" x="0px" y="0px"
	 viewBox="0 0 512 512" style="enable-background:new 0 0 512 512;" xml:space="preserve">
<path style="fill:#CAF893;" d="M245.388,157.727c31.056,85.326,11.808,176.693-42.586,241.633
	c-83.41-14.781-156.886-72.401-187.942-157.727C-16.196,156.306,3.052,64.938,57.446,0
	C140.858,14.781,214.332,72.401,245.388,157.727z M506.151,206.197c-57.498-15.353-121.387-0.481-166.495,44.626
	s-59.98,108.997-44.626,166.495c57.498,15.353,121.387,0.481,166.495-44.626S521.504,263.694,506.151,206.197z"/>
<path style="fill:#AEEF66;" d="M461.525,372.691c-39.329,39.329-92.937,55.665-144.137,49.031
	c36.425-4.715,71.634-21.05,99.615-49.031c40.855-40.855,56.907-97.117,48.164-150.083c-0.91-5.513-4.065-20.324-4.253-22.245
	c15.216-0.057,30.438,1.881,45.237,5.832C521.504,263.694,506.632,327.584,461.525,372.691z M57.446,0
	c-2.62,3.128-5.157,6.319-7.612,9.565c67.673,23.227,124.654,75.693,151.031,148.162c24.61,67.616,17.625,139.022-13.401,198.068
	l17.529,40.902c52.713-64.759,71.028-154.803,40.393-238.97C214.332,72.401,140.858,14.781,57.446,0z"/>
<path style="fill:#84AB4F;" d="M473.295,311.103c-0.217,4.467-3.907,7.943-8.331,7.943c-0.137,0-0.274-0.003-0.412-0.01
	l-56.685-2.751l-34.438,34.438l45.745,2.221c4.605,0.224,8.156,4.138,7.933,8.743c-0.217,4.467-3.907,7.943-8.331,7.943
	c-0.137,0-0.274-0.003-0.412-0.01l-60.877-2.955L241.122,483.032v20.62c0,4.61-3.738,8.348-8.348,8.348
	c-4.61,0-8.348-3.738-8.348-8.348v-21.134l-66.755-183.408l-80.059-32.706c-4.267-1.743-6.314-6.617-4.57-10.884
	c1.742-4.267,6.613-6.314,10.884-4.57l66.034,26.977l-26.282-72.209l-74.637-30.49c-4.267-1.743-6.314-6.617-4.57-10.884
	c1.743-4.267,6.616-6.313,10.884-4.57l60.612,24.761L78.019,80.266c-1.577-4.332,0.657-9.123,4.99-10.7
	c4.332-1.578,9.121,0.657,10.7,4.99l37.949,104.264l30.515-57.929c2.148-4.079,7.195-5.645,11.276-3.495
	c4.079,2.149,5.643,7.197,3.495,11.276l-37.576,71.334l26.281,72.208l33.245-63.11c2.149-4.079,7.198-5.644,11.276-3.495
	c4.078,2.149,5.643,7.197,3.495,11.276l-40.306,76.514l62.384,171.4L345.682,354.86l-2.955-60.877
	c-0.224-4.605,3.328-8.519,7.933-8.743c4.606-0.214,8.519,3.329,8.743,7.933l2.221,45.745l34.438-34.438l-2.751-56.685
	c-0.224-4.606,3.328-8.519,7.933-8.743c4.616-0.223,8.519,3.328,8.743,7.933l2.017,41.553l47.622-47.622
	c3.26-3.26,8.546-3.26,11.805,0c3.26,3.26,3.26,8.546,0,11.805l-47.622,47.622l41.553,2.017
	C469.967,302.584,473.519,306.499,473.295,311.103z"/>
<g>
</g>
<g>
</g>
<g>
</g>
<g>
</g>
<g>
</g>
<g>
</g>
<g>
</g>
<g>
</g>
<g>
</g>
<g>
</g>
<g>
</g>
<g>
</g>
<g>
</g>
<g>
</g>
<g>
</g>
</svg>
